HIERARCHY
ROOT Hips
{
	OFFSET 0.000000 0.000000 0.000000
	CHANNELS 6 Xposition Yposition Zposition Xrotation Yrotation Zrotation
	JOINT LeftUpLeg_virtual
	{
		OFFSET 0.000000 0.000000 0.000000
		CHANNELS 3 Xrotation Yrotation Zrotation
		JOINT LeftUpLeg
		{
			OFFSET 10.205400 -3.823500 0.155100
			CHANNELS 3 Xrotation Yrotation Zrotation
			JOINT LeftLeg
			{
				OFFSET 0.708757 -12.982077 0.567790
				CHANNELS 3 Xrotation Yrotation Zrotation
				JOINT LeftFoot
				{
					OFFSET -0.708756 -10.717838 -2.184338
					CHANNELS 3 Xrotation Yrotation Zrotation
					JOINT LeftToeBase
					{
						OFFSET 0.108149 -7.191104 7.560241
						CHANNELS 3 Xrotation Yrotation Zrotation
						JOINT LeftToe_End
						{
							OFFSET 0.070230 0.081724 4.490308
							CHANNELS 3 Xrotation Yrotation Zrotation
							End Site
							{
								OFFSET 0 0 0
							}
						}
					}
				}
			}
		}
	}
	JOINT RightUpLeg_virtual
	{
		OFFSET 0.000000 0.000000 0.000000
		CHANNELS 3 Xrotation Yrotation Zrotation
		JOINT RightUpLeg
		{
			OFFSET -10.205400 -3.823500 0.005500
			CHANNELS 3 Xrotation Yrotation Zrotation
			JOINT RightLeg
			{
				OFFSET -0.708756 -12.982134 0.610632
				CHANNELS 3 Xrotation Yrotation Zrotation
				JOINT RightFoot
				{
					OFFSET 0.708754 -10.717769 -1.945823
					CHANNELS 3 Xrotation Yrotation Zrotation
					JOINT RightToeBase
					{
						OFFSET -0.108140 -7.191069 7.372968
						CHANNELS 3 Xrotation Yrotation Zrotation
						JOINT RightToe_End
						{
							OFFSET -0.070227 0.081735 4.479403
							CHANNELS 3 Xrotation Yrotation Zrotation
							End Site
							{
								OFFSET 0 0 0
							}
						}
					}
				}
			}
		}
	}
	JOINT Spine_virtual
	{
		OFFSET 0.000000 0.000000 0.000000
		CHANNELS 3 Xrotation Yrotation Zrotation
		JOINT Spine
		{
			OFFSET 0.000000 6.876099 0.125700
			CHANNELS 3 Xrotation Yrotation Zrotation
			JOINT Spine1
			{
				OFFSET 0.000000 5.730043 0.104720
				CHANNELS 3 Xrotation Yrotation Zrotation
				JOINT Spine1_split
				{
					OFFSET 0.000000 5.730043 0.104720
					CHANNELS 3 Xrotation Yrotation Zrotation
					JOINT Spine2
					{
						OFFSET 0.000000 5.730043 0.104720
						CHANNELS 3 Xrotation Yrotation Zrotation
						JOINT Neck_virtual
						{
							OFFSET 0.000000 0.000000 0.000000
							CHANNELS 3 Xrotation Yrotation Zrotation
							JOINT Neck
							{
								OFFSET 0.000000 10.314075 0.188496
								CHANNELS 3 Xrotation Yrotation Zrotation
								JOINT Head
								{
									OFFSET 0.000000 7.643700 -2.377400
									CHANNELS 3 Xrotation Yrotation Zrotation
									JOINT HeadTop_End
									{
										OFFSET 0.000000 43.788605 -13.619600
										CHANNELS 3 Xrotation Yrotation Zrotation
										End Site
										{
											OFFSET 0 0 0
										}
									}
								}
							}
						}
						JOINT LeftShoulder_virtual
						{
							OFFSET 0.000000 0.000000 0.000000
							CHANNELS 3 Xrotation Yrotation Zrotation
							JOINT LeftShoulder
							{
								OFFSET 2.196100 4.412489 0.087492
								CHANNELS 3 Xrotation Yrotation Zrotation
								JOINT LeftShoulder_split
								{
									OFFSET 2.196100 4.412489 0.087492
									CHANNELS 3 Xrotation Yrotation Zrotation
									JOINT LeftArm
									{
										OFFSET 8.771219 -2.981674 -0.026999
										CHANNELS 3 Xrotation Yrotation Zrotation
										JOINT LeftForeArm
										{
											OFFSET 8.512804 0.000000 -0.000000
											CHANNELS 3 Xrotation Yrotation Zrotation
											JOINT LeftHand
											{
												OFFSET 18.484802 0.000000 -0.000000
												CHANNELS 3 Xrotation Yrotation Zrotation
												End Site
												{
													OFFSET 0 0 0
												}
											}
										}
									}
								}
							}
						}
						JOINT RightShoulder_virtual
						{
							OFFSET 0.000000 0.000000 0.000000
							CHANNELS 3 Xrotation Yrotation Zrotation
							JOINT RightShoulder
							{
								OFFSET -2.196100 4.412496 0.070690
								CHANNELS 3 Xrotation Yrotation Zrotation
								JOINT RightShoulder_split
								{
									OFFSET -2.196100 4.412496 0.070690
									CHANNELS 3 Xrotation Yrotation Zrotation
									JOINT RightArm
									{
										OFFSET -8.771282 -2.981682 -0.094208
										CHANNELS 3 Xrotation Yrotation Zrotation
										JOINT RightForeArm
										{
											OFFSET -8.494598 0.000000 0.000000
											CHANNELS 3 Xrotation Yrotation Zrotation
											JOINT RightHand
											{
												OFFSET -18.483803 0.000000 0.000001
												CHANNELS 3 Xrotation Yrotation Zrotation
												End Site
												{
													OFFSET 0 0 0
												}
											}
										}
									}
								}
							}
						}
					}
				}
			}
		}
	}
}
MOTION
Frames: 7
Frame Time: 0.03333333
0.599635 30.522120 0.649473 0.000000 0.000000 0.000000 4.833230 -3.334645 -0.942797 -39.261092 3.912703 22.127723 60.296842 9.506110 -1.345266 10.496541 4.149877 -12.415086 -33.696742 1.911586 -6.996112 0.000000 0.000000 0.000000 4.165743 -3.432719 -0.804242 -23.750866 -9.156621 5.903370 36.695400 -3.405484 -0.157454 -28.557282 -4.150381 -4.319837 8.318450 -0.773234 -0.929838 0.000000 0.000000 0.000000 5.073178 -5.069442 -0.671213 9.576947 3.325829 6.584570 6.549265 1.255451 0.900984 1.048156 -0.539711 0.246895 0.000000 0.000000 0.000000 7.225375 1.176890 0.867848 1.960885 -1.373263 -1.145071 -1.811751 -3.962661 -0.804024 0.000000 0.000000 0.000000 7.206279 1.191766 0.775152 2.426512 -7.906589 -12.995309 -1.115070 -1.875371 -1.334307 -24.142861 0.529272 -67.511646 -1.106092 -30.936526 -1.123744 0.000000 0.000000 0.000000 7.187921 1.057829 0.828186 3.822059 17.374912 6.530186 1.018075 3.445660 -2.259828 -12.061685 2.632643 67.322333 -0.262482 21.913846 0.088603 0.000000 0.000000 0.000000 
0.502564 30.588926 0.824102 0.000000 0.000000 0.000000 4.773185 -3.624934 -0.934358 -40.339234 4.512922 21.564517 58.678360 8.729094 -0.467487 10.954726 2.632335 -14.030266 -33.055243 1.884282 -6.655460 0.000000 0.000000 0.000000 4.369269 -3.783853 -0.706589 -23.287706 -8.511364 5.913478 37.910261 -3.321722 -0.111859 -28.858365 -4.079647 -4.061283 8.407400 -0.797535 -1.065362 0.000000 0.000000 0.000000 5.342241 -4.706986 -0.502846 9.375080 3.424540 6.711998 6.488666 1.300079 0.900122 0.829609 -0.423223 0.291572 0.000000 0.000000 0.000000 7.212640 1.211072 0.856693 2.148107 -1.429188 -1.260440 -1.779097 -4.195137 -0.743596 0.000000 0.000000 0.000000 7.174476 1.234659 0.758679 2.447562 -7.970154 -13.241388 -0.921828 -1.679934 -1.306696 -24.264151 0.551455 -67.925699 -0.982668 -31.385675 -1.047017 0.000000 0.000000 0.000000 7.181513 1.109250 0.824075 3.760864 17.534327 6.815190 0.823518 3.333239 -2.239631 -11.725343 2.144166 66.966385 -0.220270 21.447359 0.146839 0.000000 0.000000 0.000000 
0.394988 30.713493 1.076366 0.000000 0.000000 0.000000 4.608945 -3.954571 -0.360841 -40.361692 6.214707 19.384794 54.891905 8.132847 0.084738 8.626127 1.487253 -14.034756 -31.812398 1.160762 -4.529910 0.000000 0.000000 0.000000 4.430482 -4.183472 -0.125765 -22.700011 -7.150278 5.342606 39.231080 -3.356850 -0.207165 -29.028546 -3.779236 -3.556973 8.088163 -0.773883 -1.207611 0.000000 0.000000 0.000000 5.411447 -4.411383 0.125773 9.259540 3.558849 6.645098 6.355858 1.438538 0.856072 0.630222 -0.200865 0.262460 0.000000 0.000000 0.000000 7.095578 1.330115 0.820372 2.331144 -1.439851 -1.656973 -1.678902 -4.463011 -0.946451 0.000000 0.000000 0.000000 7.027108 1.354501 0.737509 2.429351 -7.947178 -13.506108 -0.801859 -1.239049 -1.262738 -23.839828 0.431967 -68.389250 -0.712922 -31.963025 -0.882663 0.000000 0.000000 0.000000 7.075993 1.235222 0.790950 3.670749 17.482730 7.137063 0.749380 3.273172 -2.320697 -11.170640 0.837295 66.362862 -0.161274 21.344551 0.251033 0.000000 0.000000 0.000000 
0.290369 30.855934 1.440384 0.000000 0.000000 0.000000 4.516114 -4.199678 0.702341 -40.047779 8.221519 16.246213 50.345096 7.898417 0.175188 4.945091 0.940873 -12.925621 -25.675183 0.625127 -3.229517 0.000000 0.000000 0.000000 4.541488 -4.592971 0.866228 -22.063963 -5.400930 4.159205 39.959216 -3.459345 -0.451656 -29.207272 -3.248420 -2.895045 7.777930 -0.654261 -1.276779 0.000000 0.000000 0.000000 5.318193 -4.214600 1.086929 9.272982 3.677646 6.355211 6.170488 1.619824 0.804643 0.443483 -0.096778 0.193525 0.000000 0.000000 0.000000 6.893830 1.495166 0.784965 2.468581 -1.379413 -2.191025 -1.482977 -4.686685 -1.389242 0.000000 0.000000 0.000000 6.802982 1.504937 0.729991 2.388535 -7.797970 -13.724208 -0.757320 -0.587013 -1.187829 -22.889374 0.054200 -68.800769 -0.406120 -32.402445 -0.716439 0.000000 0.000000 0.000000 6.876479 1.390454 0.756127 3.584004 17.174801 7.464135 0.688073 3.195244 -2.307092 -10.482202 -0.994521 65.699446 -0.066022 21.595714 0.359273 0.000000 0.000000 0.000000 
0.199651 31.004799 1.896456 0.000000 0.000000 0.000000 4.547779 -4.227054 2.028057 -40.854350 9.842868 13.257260 46.053466 7.714789 -0.241530 2.901201 0.581080 -12.137471 -15.163006 0.526900 -3.451043 0.000000 0.000000 0.000000 4.832861 -4.933891 2.085123 -21.180128 -3.613253 2.613715 39.769951 -3.691077 -0.798955 -29.400720 -2.567230 -2.265156 7.974680 -0.466296 -1.152226 0.000000 0.000000 0.000000 5.270439 -4.104314 2.161272 9.352620 3.753432 5.853576 5.979103 1.801378 0.772289 0.454110 -0.159361 0.093373 0.000000 0.000000 0.000000 6.631625 1.666127 0.769248 2.517251 -1.285564 -2.694326 -1.173399 -4.808670 -1.970798 0.000000 0.000000 0.000000 6.548915 1.648716 0.741637 2.338659 -7.514187 -13.848385 -0.915553 0.035778 -1.116881 -21.552684 -0.575643 -69.012143 -0.212567 -32.709718 -0.621475 0.000000 0.000000 0.000000 6.604899 1.557079 0.747604 3.523626 16.668178 7.815279 0.668339 3.200228 -2.259096 -9.815958 -3.142433 65.161603 0.073694 22.072041 0.434581 0.000000 0.000000 0.000000 
0.078074 31.137156 2.457861 0.000000 0.000000 0.000000 4.756069 -4.171129 3.388948 -41.637096 10.682157 10.490385 41.185908 7.504759 -0.674440 2.995337 0.325848 -11.238868 -6.629234 0.328364 -3.057928 0.000000 0.000000 0.000000 5.200592 -4.977074 3.352273 -20.069408 -2.177406 0.942531 38.725581 -4.082005 -1.123053 -29.476433 -1.958532 -1.618021 8.553775 -0.265701 -0.833483 0.000000 0.000000 0.000000 5.314550 -3.873223 3.150159 9.446686 3.784008 5.155705 5.802296 1.941048 0.748297 0.607579 -0.402292 -0.011943 0.000000 0.000000 0.000000 6.353011 1.820973 0.756965 2.449608 -1.192638 -3.007972 -0.712558 -4.831977 -2.560636 0.000000 0.000000 0.000000 6.310902 1.769661 0.752527 2.289965 -7.145926 -13.860326 -1.026025 0.569389 -1.018184 -20.082278 -1.402511 -68.876618 -0.175402 -32.948996 -0.622908 0.000000 0.000000 0.000000 6.282211 1.723258 0.770441 3.486772 16.033512 8.212309 0.733939 3.293602 -2.250494 -9.224760 -5.280637 64.885923 0.258773 22.595482 0.448031 0.000000 0.000000 0.000000 
-0.061841 31.270655 3.121407 0.000000 0.000000 0.000000 5.054084 -3.976870 4.547908 -41.479442 10.529525 7.659466 35.305275 7.555124 -0.920084 3.385562 0.466402 -9.409944 -2.749459 0.167140 -1.956735 0.000000 0.000000 0.000000 5.599648 -4.818552 4.464011 -18.719424 -1.376166 -0.559646 37.011962 -4.693749 -1.372246 -29.441933 -1.605845 -0.878761 8.772094 -0.129969 -0.404098 0.000000 0.000000 0.000000 5.416899 -3.670258 3.912113 9.477627 3.822638 4.359437 5.650989 2.051983 0.722332 0.853849 -0.597237 0.126759 0.000000 0.000000 0.000000 6.088355 1.980877 0.724406 2.195892 -1.129365 -3.076093 -0.111202 -4.867176 -2.954407 0.000000 0.000000 0.000000 6.088563 1.882135 0.736891 2.236889 -6.781644 -13.797850 -0.927524 0.910369 -0.767892 -18.609518 -2.220295 -68.283197 -0.196293 -33.239648 -0.658750 0.000000 0.000000 0.000000 5.925400 1.884939 0.780097 3.454552 15.318735 8.682367 0.742461 3.400532 -2.288243 -8.632090 -7.231307 64.875001 0.463308 23.066889 0.411864 0.000000 0.000000 0.000000 
